HIERARCHY
ROOT Hips
{
	OFFSET	0.00	0.00	0.00
	CHANNELS 6 Xposition Yposition Zposition Zrotation Xrotation Yrotation
	JOINT LeftUpLeg
	{
		OFFSET	 0.126116	-0.014019	-0.065224
		CHANNELS 3 Zrotation Xrotation Yrotation
		JOINT LeftLeg
		{
			OFFSET	 0.000000	 0.000000	 0.569914
			CHANNELS 3 Zrotation Xrotation Yrotation
			JOINT LeftFoot
			{
				OFFSET	 0.000000	 0.000000	 0.544423
				CHANNELS 3 Zrotation Xrotation Yrotation
				JOINT LeftToeBase
				{
					OFFSET	 0.000000	 0.000000	 0.207117
					CHANNELS 3 Zrotation Xrotation Yrotation
					End Site
					{
						OFFSET	 0.000000	 0.000000	 0.207117
					}
				}
			}
		}
	}
	JOINT RightUpLeg
	{
		OFFSET	-0.124023	-0.008373	-0.065224
		CHANNELS 3 Zrotation Xrotation Yrotation
		JOINT RightLeg
		{
			OFFSET	 0.000000	 0.000000	 0.570047
			CHANNELS 3 Zrotation Xrotation Yrotation
			JOINT RightFoot
			{
				OFFSET	 0.000000	 0.000000	 0.544354
				CHANNELS 3 Zrotation Xrotation Yrotation
				JOINT RightToeBase
				{
					OFFSET	 0.000000	 0.000000	 0.207540
					CHANNELS 3 Zrotation Xrotation Yrotation
					End Site
					{
						OFFSET	 0.000000	 0.000000	 0.207540
					}
				}
			}
		}
	}
	JOINT Spine
	{
		OFFSET	 0.000184	-0.007763	 0.117403
		CHANNELS 3 Zrotation Xrotation Yrotation
		JOINT Spine1
		{
			OFFSET	 0.000000	 0.000000	 0.137269
			CHANNELS 3 Zrotation Xrotation Yrotation
			JOINT Spine2
			{
				OFFSET	 0.000000	 0.000000	 0.156879
				CHANNELS 3 Zrotation Xrotation Yrotation
				JOINT LeftShoulder
				{
					OFFSET	 0.080501	-0.002496	 0.160144
					CHANNELS 3 Zrotation Xrotation Yrotation
					JOINT LeftArm
					{
						OFFSET	 0.000000	 0.000000	 0.164363
						CHANNELS 3 Zrotation Xrotation Yrotation
						JOINT LeftForeArm
						{
							OFFSET	 0.000000	 0.000000	 0.364576
							CHANNELS 3 Zrotation Xrotation Yrotation
							JOINT LeftHand
							{
								OFFSET	 0.000000	 0.000000	 0.360812
								CHANNELS 3 Zrotation Xrotation Yrotation
								JOINT LeftHandIndex1
								{
									OFFSET	 0.000000	 0.000000	 0.086006
									CHANNELS 3 Zrotation Xrotation Yrotation
									JOINT LeftHandIndex2
									{
										OFFSET	 0.000000	 0.000000	 0.047236
										CHANNELS 3 Zrotation Xrotation Yrotation
										JOINT LeftHandIndex3
										{
											OFFSET	-0.004284	-0.000551	 0.038166
											CHANNELS 3 Zrotation Xrotation Yrotation
											End Site
											{
												OFFSET	-0.004284	-0.000551	 0.038166
											}
										}
									}
								}
							}
						}
					}
				}
				JOINT Neck
				{
					OFFSET	 0.000000	 0.000000	 0.176489
					CHANNELS 3 Zrotation Xrotation Yrotation
					JOINT Head
					{
						OFFSET	 0.000000	-0.001747	 0.077940
						CHANNELS 3 Zrotation Xrotation Yrotation
						End Site
						{
							OFFSET	 0.000000	-0.001747	 0.077940
						}
					}
				}
				JOINT RightShoulder
				{
					OFFSET	-0.080363	 0.000306	 0.159706
					CHANNELS 3 Zrotation Xrotation Yrotation
					JOINT RightArm
					{
						OFFSET	 0.000000	 0.000000	 0.164196
						CHANNELS 3 Zrotation Xrotation Yrotation
						JOINT RightForeArm
						{
							OFFSET	 0.000000	 0.000000	 0.365611
							CHANNELS 3 Zrotation Xrotation Yrotation
							JOINT RightHand
							{
								OFFSET	 0.000000	 0.000000	 0.360648
								CHANNELS 3 Zrotation Xrotation Yrotation
								JOINT RightHandIndex1
								{
									OFFSET	 0.000000	 0.000000	 0.069977
									CHANNELS 3 Zrotation Xrotation Yrotation
									JOINT RightHandIndex2
									{
										OFFSET	 0.000000	 0.000000	 0.052305
										CHANNELS 3 Zrotation Xrotation Yrotation
										JOINT RightHandIndex3
										{
											OFFSET	 0.009002	-0.000782	 0.042196
											CHANNELS 3 Zrotation Xrotation Yrotation
											End Site
											{
												OFFSET	 0.009002	-0.000782	 0.042196
											}
										}
									}
								}
							}
						}
					}
				}
			}
		}
	}
}
MOTION
Frames:    10
Frame Time: 0.03333334
 0.000093	 0.017468	 1.302265	-0.002886	 0.007137	 0.098330	-5.733152	-1.771680	 178.979300	 1.468867	-12.304830	-0.718983	-5.127019	 65.605950	-1.052879	-2.385833	 28.452760	 0.000004	 5.609474	-2.011990	-179.120500	-1.455917	-12.277100	 0.704125	 4.961787	 65.425990	 1.066542	 2.384658	 28.388730	 0.000004	-13.131640	 2.710872	 0.187919	-1.101592	 3.677299	-0.409625	 3.348331	-4.650555	 0.723768	-91.776200	 78.527450	-180.000000	 50.697780	 36.874890	-54.982310	-20.453790	 1.730541	-7.027919	-32.422030	-2.763053	-4.428644	-2.635965	 4.993658	 6.788941	-5.165319	 0.784187	 3.516649	-5.225038	 0.466231	 0.424329	-0.000002	-3.783157	-0.089647	 3.255091	 4.948112	-0.140695	 89.782050	 78.203890	-180.000000	 1.292560	 12.712600	 106.782200	-22.019390	 1.391772	 7.108953	 6.590870	-3.890971	-5.903983	 6.112037	 4.509576	-0.364401	 4.968462	 1.518543	-9.347576	 5.168945	 0.703820	 2.021906
 0.000085	 0.017423	 1.303046	-0.002891	 0.007137	 0.098334	-5.662928	-1.773615	 178.974100	 1.468868	-12.304950	-0.718990	-5.127680	 65.483720	-1.048216	-2.385833	 28.452760	 0.000004	 5.539320	-2.013664	-179.115600	-1.455922	-12.277070	 0.704124	 4.962002	 65.303860	 1.062514	 2.384658	 28.388730	 0.000004	-13.185760	 2.710868	 0.187917	-1.101589	 3.677309	-0.409628	 3.348331	-4.650561	 0.723768	-91.776200	 78.527450	-180.000000	 50.699320	 36.871400	-54.982270	-20.557360	 1.754909	-7.079891	-32.073210	-4.663115	-4.510422	-2.635965	 4.993658	 6.788941	-5.165319	 0.784187	 3.516649	-5.225038	 0.466231	 0.424329	-0.000002	-3.783157	-0.089647	 3.255091	 4.948110	-0.140695	 89.782140	 78.203890	 180.000000	 1.310352	 12.784700	 106.793100	-21.971120	 1.416883	 7.163044	 5.906772	-5.740865	-5.878292	 6.112037	 4.509576	-0.364401	 4.968462	 1.518543	-9.347576	 5.168945	 0.703820	 2.021906
 0.000080	 0.017377	 1.303805	-0.002885	 0.007135	 0.098328	-5.593413	-1.775357	 178.969000	 1.468872	-12.304690	-0.718975	-5.128176	 65.362510	-1.043733	-2.385833	 28.452760	 0.000004	 5.469826	-2.015223	-179.110700	-1.455923	-12.276830	 0.704109	 4.962049	 65.182850	 1.058635	 2.384658	 28.388730	 0.000004	-13.235500	 2.710860	 0.187923	-1.101592	 3.677336	-0.409621	 3.348322	-4.650580	 0.723764	-91.776110	 78.527450	 179.999900	 50.711030	 36.868010	-54.995230	-20.659490	 1.780356	-7.132659	-31.721610	-6.718622	-4.570907	-2.635965	 4.993658	 6.788941	-5.165319	 0.784187	 3.516649	-5.225038	 0.466231	 0.424329	-0.000002	-3.783157	-0.089647	 3.255091	 4.948111	-0.140695	 89.782170	 78.203900	 179.999900	 1.304878	 12.865720	 106.798600	-21.928710	 1.441824	 7.214703	 5.190883	-7.750305	-5.891503	 6.112037	 4.509576	-0.364401	 4.968462	 1.518543	-9.347576	 5.168945	 0.703820	 2.021906
 0.000079	 0.017328	 1.304544	-0.002886	 0.007137	 0.098330	-5.524499	-1.777335	 178.963900	 1.468868	-12.304950	-0.718990	-5.128639	 65.242710	-1.039266	-2.385833	 28.452760	 0.000004	 5.400921	-2.017030	-179.105900	-1.455920	-12.277090	 0.704126	 4.962054	 65.063220	 1.054760	 2.384658	 28.388730	 0.000004	-13.280500	 2.710871	 0.187919	-1.101592	 3.677310	-0.409618	 3.348330	-4.650566	 0.723765	-91.776150	 78.527450	 180.000000	 50.729770	 36.870060	-55.020260	-20.758630	 1.806332	-7.185628	-31.366060	-8.919673	-4.604998	-2.635965	 4.993658	 6.788941	-5.165319	 0.784187	 3.516649	-5.225038	 0.466231	 0.424329	-0.000002	-3.783157	-0.089647	 3.255091	 4.948111	-0.140695	 89.782080	 78.203900	-180.000000	 1.267287	 12.939790	 106.790200	-21.888610	 1.465864	 7.268520	 4.437175	-9.899433	-5.949555	 6.112037	 4.509576	-0.364401	 4.968462	 1.518543	-9.347576	 5.168945	 0.703820	 2.021906
 0.000084	 0.017275	 1.305256	-0.002891	 0.007137	 0.098334	-5.455872	-1.779135	 178.958800	 1.468868	-12.304840	-0.718984	-5.128924	 65.123280	-1.034946	-2.385833	 28.452760	 0.000004	 5.332375	-2.018575	-179.101200	-1.455922	-12.276830	 0.704111	 4.961935	 64.943890	 1.051041	 2.384658	 28.388730	 0.000004	-13.320480	 2.710865	 0.187917	-1.101589	 3.677310	-0.409627	 3.348330	-4.650560	 0.723767	-91.776200	 78.527490	-180.000000	 50.760010	 36.876580	-55.064520	-20.855230	 1.829385	-7.233521	-31.002960	-11.260040	-4.607406	-2.635965	 4.993658	 6.788941	-5.165319	 0.784187	 3.516649	-5.225038	 0.466231	 0.424329	-0.000002	-3.783157	-0.089647	 3.255111	 4.948138	-0.140696	 89.782140	 78.203890	 180.000000	 1.211763	 13.031930	 106.771800	-21.855920	 1.489602	 7.320004	 3.652046	-12.164780	-6.059044	 6.112037	 4.509576	-0.364401	 4.968462	 1.518543	-9.347576	 5.168945	 0.703820	 2.021906
 0.000097	 0.017214	 1.305913	-0.002885	 0.007135	 0.098328	-5.388035	-1.781094	 178.953800	 1.468866	-12.305080	-0.718998	-5.129198	 65.005380	-1.030669	-2.385833	 28.452760	 0.000004	 5.264544	-2.020350	-179.096400	-1.455919	-12.277070	 0.704124	 4.961775	 64.826180	 1.047341	 2.384658	 28.388730	 0.000004	-13.354730	 2.710868	 0.187921	-1.101594	 3.677312	-0.409618	 3.348331	-4.650563	 0.723764	-91.776120	 78.527450	 179.999900	 50.801640	 36.891030	-55.127680	-20.948810	 1.852613	-7.280990	-30.632060	-13.705030	-4.572722	-2.635965	 4.993658	 6.788941	-5.165319	 0.784187	 3.516649	-5.225038	 0.466231	 0.424329	-0.000002	-3.783157	-0.089647	 3.255091	 4.948111	-0.140695	 89.782150	 78.203890	 180.000000	 1.226140	 13.136670	 106.755900	-21.826720	 1.513067	 7.366453	 2.829170	-14.527220	-6.229160	 6.112037	 4.509576	-0.364401	 4.968462	 1.518543	-9.347576	 5.168945	 0.703820	 2.021906
 0.000114	 0.017146	 1.306565	-0.002887	 0.007139	 0.098358	-5.317803	-1.782984	 178.948500	 1.468862	-12.305050	-0.718998	-5.129362	 64.883240	-1.026335	-2.385833	 28.452760	 0.000004	 5.194345	-2.022074	-179.091600	-1.455916	-12.277060	 0.704125	 4.961502	 64.704190	 1.043604	 2.384658	 28.388730	 0.000004	-13.384030	 2.710853	 0.187892	-1.101590	 3.677330	-0.409613	 3.348326	-4.650573	 0.723763	-91.776130	 78.527450	 180.000000	 50.856390	 36.912560	-55.211430	-21.042890	 1.878018	-7.331326	-30.232080	-16.350040	-4.491555	-2.635965	 4.993658	 6.788941	-5.165319	 0.784187	 3.516649	-5.225038	 0.466231	 0.424329	-0.000002	-3.783157	-0.089647	 3.255091	 4.948111	-0.140695	 89.782150	 78.203870	 180.000000	 1.243149	 13.229380	 106.728500	-21.798600	 1.536468	 7.414805	 1.792882	-17.023260	-6.472477	 6.112037	 4.509576	-0.364401	 4.968462	 1.518543	-9.347576	 5.168945	 0.703820	 2.021906
 0.000133	 0.017080	 1.307202	-0.002891	 0.007137	 0.098334	-5.249472	-1.784802	 178.943500	 1.468868	-12.304950	-0.718991	-5.129356	 64.764470	-1.022226	-2.385833	 28.452760	 0.000004	 5.126066	-2.023761	-179.086800	-1.455921	-12.277090	 0.704125	 4.961134	 64.585680	 1.040019	 2.384658	 28.388730	 0.000004	-13.405890	 2.710868	 0.187917	-1.101589	 3.677304	-0.409628	 3.348331	-4.650557	 0.723768	-91.776220	 78.527450	-180.000000	 50.919960	 36.939170	-55.313030	-21.130660	 1.898889	-7.373839	-29.823340	-19.005310	-4.362151	-2.635965	 4.993658	 6.788941	-5.165319	 0.784187	 3.516649	-5.225038	 0.466231	 0.424329	-0.000002	-3.783157	-0.089647	 3.255091	 4.948111	-0.140695	 89.782140	 78.203890	 180.000000	 1.156190	 13.296860	 106.680300	-21.774120	 1.558559	 7.460170	 0.590744	-19.465410	-6.779211	 6.112037	 4.509576	-0.364401	 4.968462	 1.518543	-9.347576	 5.168945	 0.703820	 2.021906
 0.000149	 0.017018	 1.307878	-0.002886	 0.007137	 0.098360	-5.181127	-1.786664	 178.938400	 1.468866	-12.304940	-0.718991	-5.129319	 64.645680	-1.018125	-2.385833	 28.452760	 0.000004	 5.057745	-2.025390	-179.082100	-1.455919	-12.276950	 0.704118	 4.960676	 64.467000	 1.036505	 2.384658	 28.388730	 0.000004	-13.420580	 2.710867	 0.187889	-1.101591	 3.677317	-0.409618	 3.348331	-4.650566	 0.723765	-91.776180	 78.527470	 180.000000	 50.991550	 36.967670	-55.426380	-21.214030	 1.921456	-7.418214	-29.389400	-21.712630	-4.176808	-2.635965	 4.993658	 6.788941	-5.165319	 0.784187	 3.516649	-5.225038	 0.466231	 0.424329	-0.000002	-3.783157	-0.089647	 3.255091	 4.948110	-0.140695	 89.782100	 78.203870	-180.000000	 0.843052	 13.340740	 106.596700	-21.750420	 1.579606	 7.504369	-0.668118	-21.950740	-7.168962	 6.112037	 4.509576	-0.364401	 4.968462	 1.518543	-9.347576	 5.168945	 0.703820	 2.021906
 0.000157	 0.016967	 1.308652	-0.002890	 0.007135	 0.098332	-5.111037	-1.788533	 178.933300	 1.468866	-12.304820	-0.718983	-5.129145	 64.523900	-1.014025	-2.385833	 28.452760	 0.000004	 4.987690	-2.027122	-179.077200	-1.455920	-12.276960	 0.704118	 4.960125	 64.345470	 1.032933	 2.384658	 28.388730	 0.000004	-13.427520	 2.710867	 0.187919	-1.101589	 3.677310	-0.409627	 3.348331	-4.650559	 0.723767	-91.776180	 78.527500	 180.000000	 51.065740	 37.003700	-55.551830	-21.295480	 1.941869	-7.458743	-28.911990	-24.501360	-3.922948	-2.635965	 4.993658	 6.788941	-5.165319	 0.784187	 3.516649	-5.225038	 0.466231	 0.424329	-0.000002	-3.783157	-0.089647	 3.255091	 4.948111	-0.140695	 89.782080	 78.203850	-180.000000	 0.105183	 13.468830	 106.465800	-21.550890	 1.601846	 7.546196	-2.208025	-24.496290	-7.633858	 6.112037	 4.509576	-0.364401	 4.968462	 1.518543	-9.347576	 5.168945	 0.703820	 2.021906
